<svg xmlns="http://www.w3.org/2000/svg" xmlns:xlink="http://www.w3.org/1999/xlink" width="500" zoomAndPan="magnify" viewBox="0 0 375 374.999991" height="500" preserveAspectRatio="xMidYMid meet" version="1.0"><defs><g/><clipPath id="d68f953739"><path d="M 119.308594 144 L 188 144 L 188 204.699219 L 119.308594 204.699219 Z M 119.308594 144 " clip-rule="nonzero"/></clipPath><clipPath id="dfdc3ff984"><path d="M 187 113.199219 L 255.808594 113.199219 L 255.808594 174 L 187 174 Z M 187 113.199219 " clip-rule="nonzero"/></clipPath></defs><g clip-path="url(#d68f953739)"><path fill="#002c66" d="M 165.269531 187.171875 L 165.269531 195.453125 L 127.644531 178.03125 L 127.644531 171.308594 L 165.269531 153.882812 L 165.269531 162.167969 L 136.816406 174.589844 L 136.816406 174.746094 Z M 187.617188 144.679688 L 124.691406 144.679688 C 121.722656 144.679688 119.3125 147.082031 119.3125 150.042969 L 119.3125 199.296875 C 119.3125 202.257812 121.722656 204.65625 124.691406 204.65625 L 170.148438 204.65625 L 187.617188 144.679688 " fill-opacity="1" fill-rule="nonzero"/></g><g clip-path="url(#dfdc3ff984)"><path fill="#ff9801" d="M 247.488281 146.8125 L 209.863281 164 L 209.863281 155.71875 L 238.945312 143.292969 L 238.945312 143.136719 L 209.863281 130.710938 L 209.863281 122.429688 L 247.488281 139.621094 Z M 205.085938 113.226562 L 187.617188 173.207031 L 250.4375 173.207031 C 253.410156 173.207031 255.816406 170.804688 255.816406 167.84375 L 255.816406 118.589844 C 255.816406 115.628906 253.410156 113.226562 250.4375 113.226562 L 205.085938 113.226562 " fill-opacity="1" fill-rule="nonzero"/></g><g fill="#000000" fill-opacity="1"><g transform="translate(79.640998, 238.121761)"><g><path d="M 2.066406 0 L 8.996094 0 C 14.769531 0 19.492188 -4.691406 19.492188 -10.5 C 19.492188 -16.308594 14.769531 -21 8.996094 -21 L 2.066406 -21 Z M 6.683594 -4.09375 L 6.683594 -16.902344 L 8.960938 -16.902344 C 12.285156 -16.902344 14.875 -14.140625 14.875 -10.5 C 14.875 -6.859375 12.285156 -4.09375 8.960938 -4.09375 Z M 6.683594 -4.09375 "/></g></g></g><g fill="#000000" fill-opacity="1"><g transform="translate(101.660125, 238.121761)"><g><path d="M 2.238281 0 L 6.859375 0 L 6.859375 -21 L 2.238281 -21 Z M 2.238281 0 "/></g></g></g><g fill="#000000" fill-opacity="1"><g transform="translate(111.955881, 238.121761)"><g><path d="M 12.074219 -11.515625 L 12.074219 -7.910156 L 17.847656 -7.910156 C 16.867188 -5.703125 14.699219 -4.234375 12.109375 -4.234375 C 8.574219 -4.234375 5.84375 -6.964844 5.84375 -10.5 C 5.84375 -14.035156 8.574219 -16.761719 12.109375 -16.761719 C 14.59375 -16.761719 16.625 -15.433594 17.671875 -13.4375 L 21.664062 -15.503906 C 19.84375 -18.933594 16.238281 -21.277344 12.109375 -21.277344 C 6.125 -21.277344 1.328125 -16.449219 1.328125 -10.5 C 1.328125 -4.550781 6.125 0.28125 12.109375 0.28125 C 18.058594 0.28125 22.886719 -4.550781 22.886719 -10.5 L 22.886719 -11.515625 Z M 12.074219 -11.515625 "/></g></g></g><g fill="#000000" fill-opacity="1"><g transform="translate(137.404526, 238.121761)"><g><path d="M 2.238281 0 L 6.859375 0 L 6.859375 -21 L 2.238281 -21 Z M 2.238281 0 "/></g></g></g><g fill="#000000" fill-opacity="1"><g transform="translate(147.700283, 238.121761)"><g><path d="M 15.011719 -21 L -0.175781 -21 L -0.175781 -16.902344 L 5.144531 -16.902344 L 5.144531 0 L 9.730469 0 L 9.730469 -16.902344 L 15.011719 -16.902344 Z M 15.011719 -21 "/></g></g></g><g fill="#000000" fill-opacity="1"><g transform="translate(163.770236, 238.121761)"><g><path d="M 14.910156 0 L 19.84375 0 L 12.285156 -21 L 7.105469 -21 L -0.453125 0 L 4.480469 0 L 5.773438 -3.953125 L 13.613281 -3.953125 Z M 7 -7.804688 L 9.695312 -16.132812 L 12.390625 -7.804688 Z M 7 -7.804688 "/></g></g></g><g fill="#000000" fill-opacity="1"><g transform="translate(184.389552, 238.121761)"><g><path d="M 6.683594 -4.09375 L 6.683594 -21 L 2.066406 -21 L 2.066406 0 L 13.648438 0 L 13.648438 -4.09375 Z M 6.683594 -4.09375 "/></g></g></g><g fill="#000000" fill-opacity="1"><g transform="translate(199.339655, 238.121761)"><g/></g></g><g fill="#000000" fill-opacity="1"><g transform="translate(208.970499, 238.121761)"><g><path d="M 8.539062 0.28125 C 12.457031 0.28125 15.785156 -2.03125 15.785156 -5.949219 C 15.785156 -13.71875 6.125 -11.792969 6.125 -15.433594 C 6.125 -16.625 7.035156 -17.183594 8.152344 -17.183594 C 9.34375 -17.183594 10.535156 -16.519531 11.582031 -15.363281 L 14.664062 -18.304688 C 13.125 -20.089844 10.777344 -21.277344 8.1875 -21.277344 C 4.863281 -21.277344 1.46875 -19.285156 1.46875 -15.082031 C 1.46875 -7.945312 11.164062 -9.660156 11.164062 -5.984375 C 11.164062 -4.828125 10.183594 -4.058594 8.574219 -4.058594 C 6.648438 -4.058594 5.144531 -5.144531 4.375 -6.789062 L 0.558594 -4.410156 C 1.925781 -1.785156 4.863281 0.28125 8.539062 0.28125 Z M 8.539062 0.28125 "/></g></g></g><g fill="#000000" fill-opacity="1"><g transform="translate(226.790208, 238.121761)"><g><path d="M 10.988281 -21 L 2.066406 -21 L 2.066406 0 L 6.683594 0 L 6.683594 -8.503906 L 10.988281 -8.503906 C 14.523438 -8.503906 17.253906 -11.128906 17.253906 -14.664062 C 17.253906 -18.164062 14.523438 -21 10.988281 -21 Z M 10.253906 -12.320312 L 6.683594 -12.320312 L 6.683594 -16.9375 L 10.253906 -16.9375 C 11.722656 -16.9375 12.84375 -15.992188 12.84375 -14.628906 C 12.84375 -13.230469 11.722656 -12.320312 10.253906 -12.320312 Z M 10.253906 -12.320312 "/></g></g></g><g fill="#000000" fill-opacity="1"><g transform="translate(245.414802, 238.121761)"><g><path d="M 14.910156 0 L 19.84375 0 L 12.285156 -21 L 7.105469 -21 L -0.453125 0 L 4.480469 0 L 5.773438 -3.953125 L 13.613281 -3.953125 Z M 7 -7.804688 L 9.695312 -16.132812 L 12.390625 -7.804688 Z M 7 -7.804688 "/></g></g></g><g fill="#000000" fill-opacity="1"><g transform="translate(266.034124, 238.121761)"><g><path d="M 12.074219 0.28125 C 16.238281 0.28125 19.84375 -2.066406 21.628906 -5.496094 L 17.636719 -7.558594 C 16.625 -5.566406 14.558594 -4.234375 12.074219 -4.234375 C 8.539062 -4.234375 5.84375 -6.964844 5.84375 -10.5 C 5.84375 -14.035156 8.539062 -16.761719 12.074219 -16.761719 C 14.558594 -16.761719 16.625 -15.433594 17.636719 -13.4375 L 21.628906 -15.503906 C 19.84375 -18.933594 16.238281 -21.277344 12.074219 -21.277344 C 6.125 -21.277344 1.292969 -16.449219 1.292969 -10.5 C 1.292969 -4.550781 6.125 0.28125 12.074219 0.28125 Z M 12.074219 0.28125 "/></g></g></g><g fill="#000000" fill-opacity="1"><g transform="translate(289.80301, 238.121761)"><g><path d="M 14.875 -16.9375 L 14.875 -21 L 2.238281 -21 L 2.238281 0 L 14.875 0 L 14.875 -4.058594 L 6.859375 -4.058594 L 6.859375 -8.46875 L 13.71875 -8.46875 L 13.71875 -12.527344 L 6.859375 -12.527344 L 6.859375 -16.9375 Z M 14.875 -16.9375 "/></g></g></g></svg>